HIERARCHY
ROOT SimulationBone
{
	OFFSET 0.000000 0.000000 0.000000
	CHANNELS 6 Xposition Yposition Zposition Zrotation Yrotation Xrotation 
	JOINT Hips
	{
		OFFSET 0.000000 0.000000 0.000000
		CHANNELS 6 Xposition Yposition Zposition Zrotation Yrotation Xrotation 
		JOINT LeftUpLeg
		{
			OFFSET 0.103459 1.857814 10.548504
			CHANNELS 3 Zrotation Yrotation Xrotation
			JOINT LeftLeg
			{
				OFFSET 43.500000 -0.000004 -0.000011
				CHANNELS 3 Zrotation Yrotation Xrotation
				JOINT LeftFoot
				{
					OFFSET 42.372196 -0.000004 0.000004
					CHANNELS 3 Zrotation Yrotation Xrotation
					JOINT LeftToe
					{
						OFFSET 17.300003 0.000001 -0.000008
						CHANNELS 3 Zrotation Yrotation Xrotation
						End Site
						{
							OFFSET 0.000000 0.000000 0.000000
						}
					}
				}
			}
		}
		JOINT RightUpLeg
		{
			OFFSET 0.103457 1.857841 -10.548511
			CHANNELS 3 Zrotation Yrotation Xrotation
			JOINT RightLeg
			{
				OFFSET 43.500042 -0.000038 0.000000
				CHANNELS 3 Zrotation Yrotation Xrotation
				JOINT RightFoot
				{
					OFFSET 42.372269 -0.000023 0.000011
					CHANNELS 3 Zrotation Yrotation Xrotation
					JOINT RightToe
					{
						OFFSET 17.300003 -0.000001 0.000023
						CHANNELS 3 Zrotation Yrotation Xrotation
						End Site
						{
							OFFSET 0.000000 0.000000 0.000000
						}
					}
				}
			}
		}
		JOINT Spine
		{
			OFFSET 6.901971 -2.603744 -0.000012
			CHANNELS 3 Zrotation Yrotation Xrotation
			JOINT Spine1
			{
				OFFSET 12.588097 -0.000002 0.000018
				CHANNELS 3 Zrotation Yrotation Xrotation
				JOINT Spine2
				{
					OFFSET 12.343208 0.000014 -0.000019
					CHANNELS 3 Zrotation Yrotation Xrotation
					JOINT Neck
					{
						OFFSET 25.832897 0.000008 0.000016
						CHANNELS 3 Zrotation Yrotation Xrotation
						JOINT Head
						{
							OFFSET 11.766600 -0.000006 0.000008
							CHANNELS 3 Zrotation Yrotation Xrotation
							End Site
							{
								OFFSET 0.000000 0.000000 0.000000
							}
						}
					}
					JOINT LeftShoulder
					{
						OFFSET 19.745909 -1.480356 6.000120
						CHANNELS 3 Zrotation Yrotation Xrotation
						JOINT LeftArm
						{
							OFFSET 11.284115 -0.000000 -0.000025
							CHANNELS 3 Zrotation Yrotation Xrotation
							JOINT LeftForeArm
							{
								OFFSET 33.000057 0.000003 0.000029
								CHANNELS 3 Zrotation Yrotation Xrotation
								JOINT LeftHand
								{
									OFFSET 25.200006 0.000029 0.000011
									CHANNELS 3 Zrotation Yrotation Xrotation
									End Site
									{
										OFFSET 0.000000 0.000000 0.000000
									}
								}
							}
						}
					}
					JOINT RightShoulder
					{
						OFFSET 19.746088 -1.480379 -6.000049
						CHANNELS 3 Zrotation Yrotation Xrotation
						JOINT RightArm
						{
							OFFSET 11.284159 -0.000019 -0.000011
							CHANNELS 3 Zrotation Yrotation Xrotation
							JOINT RightForeArm
							{
								OFFSET 33.000076 -0.000001 0.000001
								CHANNELS 3 Zrotation Yrotation Xrotation
								JOINT RightHand
								{
									OFFSET 25.199781 0.000139 0.000430
									CHANNELS 3 Zrotation Yrotation Xrotation
									End Site
									{
										OFFSET 0.000000 0.000000 0.000000
									}
								}
							}
						}
					}
				}
			}
		}
	}
}
MOTION
Frames: 9
Frame Time: 0.016667
-157.080383 0.000000 -105.781080 180.000000 -0.437156 180.000000 2.171699 88.991577 0.625802 95.645441 2.141789 179.507572 161.651795 -2.203797 -175.598344 -8.705722 -3.184744 -3.071640 74.376927 1.775533 -1.725954 21.454551 0.003092 -0.000000 -167.954939 -5.972397 175.610038 -15.083276 3.624069 -1.601903 89.061998 -0.154410 -6.780929 21.454560 -0.003108 -0.000018 6.721135 0.649899 2.295127 3.454439 1.231946 4.608615 3.137401 1.259862 4.601118 11.999550 3.155782 -1.704940 -22.819356 -2.706687 -0.487353 -142.353256 -76.866145 -39.896437 -11.691095 65.338114 42.302450 -22.905992 -13.095337 0.989601 5.223298 -11.392490 0.534535 174.187118 72.000927 -4.615847 -18.984500 -50.578223 -37.767195 -35.232953 17.699797 -1.541830 5.015657 7.089316 -8.884202 
-158.299576 0.000000 -105.706430 180.000000 -0.246095 180.000000 2.184014 88.760100 0.683334 95.656351 2.335621 179.603211 161.522810 -2.124352 -175.103591 -7.586265 -3.136418 -3.282813 74.884421 1.792385 -2.201439 21.454550 0.003092 0.000000 -167.114790 -6.117132 175.530382 -15.057120 3.658261 -1.686886 89.405180 -0.100433 -6.909513 21.454557 -0.003109 -0.000018 6.736792 0.641274 2.294997 3.485387 1.214080 4.608248 3.168348 1.241995 4.600858 11.952935 3.180826 -1.631479 -23.146752 -2.574445 -0.454196 -142.307339 -76.804359 -39.945814 -11.142271 65.603497 42.935802 -22.179573 -12.845932 0.963666 5.491027 -11.384779 0.330012 174.140166 72.161700 -4.659559 -19.081001 -50.939192 -37.373048 -35.479667 17.795205 -1.553770 4.887530 7.190615 -8.890598 
-159.534381 0.000000 -105.640349 180.000000 -0.054566 180.000000 2.178033 88.546959 0.725892 95.688506 2.462640 179.698941 161.497132 -2.008103 -174.722154 -7.040731 -3.101488 -3.477385 75.215244 1.752163 -2.841578 21.454551 0.003092 -0.000000 -166.264180 -6.187194 175.391212 -15.037857 3.706712 -1.731204 89.694904 -0.068169 -6.988556 21.454555 -0.003109 -0.000017 6.755832 0.619098 2.292298 3.522517 1.169069 4.602351 3.205474 1.196950 4.595232 11.923783 3.222621 -1.557219 -23.449974 -2.461711 -0.412789 -142.357395 -76.732854 -39.897820 -10.701987 65.795646 43.546299 -21.499982 -12.587806 0.938293 5.749589 -11.385653 0.265102 174.123379 72.310396 -4.672606 -19.108363 -51.340444 -37.005161 -35.650274 17.860239 -1.562046 4.892685 7.277577 -8.832072 
-160.785824 0.000000 -105.582077 180.000000 0.137385 180.000000 2.137737 88.391702 0.741626 95.737157 2.441498 179.791108 161.614993 -1.826885 -174.424640 -6.960536 -3.116550 -3.513547 74.992803 1.622711 -3.360554 21.454552 0.003092 -0.000000 -165.384086 -6.100436 175.297703 -14.945797 3.731678 -1.784405 89.860989 -0.027668 -7.017603 21.454554 -0.003109 -0.000017 6.776072 0.567805 2.288722 3.560858 1.065843 4.593787 3.243817 1.093673 4.587290 11.980711 3.252993 -1.480602 -23.791781 -2.302889 -0.391992 -142.628978 -76.664966 -39.623841 -10.233491 65.897865 44.047154 -20.963130 -12.318113 0.914198 5.793356 -11.460701 0.534572 174.187313 72.408815 -4.604202 -19.043500 -51.734444 -36.695487 -35.751970 17.876350 -1.565542 4.969631 7.332184 -8.839747 
-162.053780 0.000000 -105.531367 180.000000 0.329961 180.000000 2.055311 88.311821 0.723604 95.774438 2.247488 179.847651 161.862492 -1.506394 -174.254942 -7.216172 -3.169150 -3.414511 74.094315 1.585075 -3.170799 21.454553 0.003092 0.000000 -164.531512 -5.823501 175.327691 -14.824345 3.709141 -1.898791 89.887898 0.053830 -7.007601 21.454557 -0.003108 -0.000017 6.792622 0.480420 2.289110 3.590388 0.890509 4.591957 3.273365 0.918330 4.586515 12.081367 3.304919 -1.396881 -24.123330 -2.117662 -0.376631 -142.908701 -76.582794 -39.342054 -9.806385 65.941737 44.417883 -20.558798 -12.082594 0.894206 5.693229 -11.378886 0.901394 174.304529 72.469956 -4.482149 -18.909666 -52.135420 -36.447698 -35.752566 17.841974 -1.563295 5.026316 7.332179 -8.888063 
-163.337734 0.000000 -105.487350 180.000000 0.521023 180.000000 1.936297 88.313031 0.669815 95.777331 1.882622 179.834045 162.221585 -0.984874 -174.222947 -7.636663 -3.221221 -3.249270 72.533453 1.827403 -1.898061 21.454553 0.003092 0.000000 -163.757896 -5.351767 175.512685 -14.729198 3.625786 -2.103379 89.771801 0.195012 -6.963819 21.454560 -0.003108 -0.000017 6.799521 0.355058 2.298112 3.599119 0.639394 4.606075 3.282131 0.667305 4.602144 12.178456 3.413511 -1.303235 -24.388290 -1.944748 -0.344576 -142.972351 -76.471371 -39.281673 -9.490480 65.962920 44.678802 -20.254040 -11.922980 0.880399 5.546157 -10.943521 1.120553 174.426949 72.514470 -4.355195 -18.727886 -52.567288 -36.275240 -35.618877 17.760845 -1.554840 5.008959 7.263375 -8.882979 
-164.636949 0.000000 -105.448391 180.000000 0.706659 180.000000 1.830465 88.375999 0.589775 95.750717 1.396898 179.741329 162.715433 -0.301895 -174.132189 -7.905121 -3.188085 -3.106738 70.614306 2.229945 -0.299676 21.454553 0.003092 -0.000000 -163.022040 -4.741103 175.727544 -14.642773 3.497235 -2.330870 89.500981 0.354778 -6.856882 21.454562 -0.003108 -0.000017 6.789270 0.201613 2.316442 3.572440 0.332556 4.637935 3.255491 0.360666 4.635850 12.315402 3.560696 -1.207839 -24.612230 -1.814555 -0.292898 -142.876612 -76.354891 -39.384032 -9.159823 65.962617 44.937855 -20.031499 -11.816343 0.870870 5.265478 -10.389069 1.352003 174.505104 72.542301 -4.274149 -18.458923 -53.031807 -36.263755 -35.352850 17.640972 -1.540848 5.046347 7.148800 -8.613378 
-165.949608 0.000000 -105.413875 180.000000 0.885073 180.000000 1.787424 88.475207 0.492174 95.704737 0.849087 179.586082 163.357649 0.464775 -173.793225 -7.785942 -3.018354 -3.092305 68.644463 2.583019 0.729650 21.454551 0.003092 -0.000000 -162.287359 -4.058343 175.865401 -14.564504 3.343124 -2.514687 89.073094 0.494543 -6.651428 21.454559 -0.003109 -0.000017 6.755066 0.032136 2.340664 3.497189 -0.005518 4.681212 3.180266 0.022859 4.681162 12.550399 3.727200 -1.118458 -24.827343 -1.746403 -0.223752 -142.743598 -76.259380 -39.523607 -8.665337 65.923171 45.313118 -19.890245 -11.734982 0.864006 4.791476 -9.959945 1.750384 174.496927 72.553493 -4.282220 -18.058879 -53.530394 -36.492169 -34.964669 17.486113 -1.521885 5.256045 7.014778 -7.944939 
-167.272746 0.000000 -105.384380 180.000000 1.057100 180.000000 1.808413 88.585442 0.377120 95.640099 0.286535 179.454107 164.065638 1.198197 -173.254592 -7.516270 -2.831601 -3.356451 66.713694 2.834245 0.831415 21.454550 0.003092 -0.000000 -161.617603 -3.366302 176.049123 -14.633752 3.169997 -2.686919 88.531046 0.643734 -6.323463 21.454557 -0.003109 -0.000017 6.694463 -0.144514 2.354530 3.368818 -0.356518 4.703937 3.051892 -0.327999 4.705999 12.910509 3.942647 -1.030569 -25.010172 -1.723537 -0.139941 -142.688222 -76.180244 -39.583378 -7.962325 65.789014 45.874448 -19.878960 -11.696907 0.861431 4.350922 -9.521743 2.045989 174.392010 72.568973 -4.389517 -17.537640 -54.087334 -36.929053 -34.462265 17.278801 -1.496816 5.532353 6.869873 -7.165160 
